<svg width="1440" height="845" viewBox="0 0 1440 845" fill="none" xmlns="http://www.w3.org/2000/svg">
<g clip-path="url(#clip0_2009_38086)">
<circle cx="720.5" cy="802.5" r="616.15" stroke="url(#paint0_radial_2009_38086)" stroke-width="0.700655"/>
<circle cx="720" cy="881" r="880.65" stroke="url(#paint1_radial_2009_38086)" stroke-width="0.700655"/>
<path d="M1304 616C1319.46 616 1332 603.464 1332 588C1332 572.536 1319.46 560 1304 560C1288.54 560 1276 572.536 1276 588C1276 603.464 1288.54 616 1304 616Z" fill="#627EEA"/>
<path d="M1304.15 572.174V583.874L1314.04 588.293L1304.15 572.174Z" fill="white" fill-opacity="0.602"/>
<path d="M1304.15 572.174L1294.26 588.293L1304.15 583.874V572.174Z" fill="white"/>
<path d="M1304.15 595.876V603.826L1314.05 590.135L1304.15 595.876Z" fill="white" fill-opacity="0.602"/>
<path d="M1304.15 603.826V595.874L1294.26 590.135L1304.15 603.826Z" fill="white"/>
<path d="M1304.15 594.035L1314.04 588.293L1304.15 583.877V594.035Z" fill="white" fill-opacity="0.2"/>
<path d="M1294.26 588.293L1304.15 594.035V583.877L1294.26 588.293Z" fill="white" fill-opacity="0.602"/>
<path d="M144 616C159.464 616 172 603.464 172 588C172 572.536 159.464 560 144 560C128.536 560 116 572.536 116 588C116 603.464 128.536 616 144 616Z" fill="black"/>
<path d="M144 616C159.464 616 172 603.464 172 588C172 572.536 159.464 560 144 560C128.536 560 116 572.536 116 588C116 603.464 128.536 616 144 616Z" fill="#2775C9"/>
<path style="mix-blend-mode:soft-light" d="M144 616C159.464 616 172 603.464 172 588C172 572.536 159.464 560 144 560C128.536 560 116 572.536 116 588C116 603.464 128.536 616 144 616Z" fill="url(#paint2_linear_2009_38086)"/>
<path d="M143.533 609.466C131.419 609.466 121.6 599.648 121.6 587.533C121.6 575.418 131.419 565.6 143.533 565.6C155.648 565.6 165.467 575.418 165.467 587.533C165.467 593.35 163.156 598.929 159.043 603.042C154.929 607.155 149.351 609.466 143.533 609.466V609.466ZM142.227 579.394C141.027 579.454 139.892 579.96 139.046 580.813C138.2 581.666 137.703 582.804 137.653 584.005C137.653 586.264 139.035 587.738 141.965 588.354L144.019 588.84C146.016 589.306 146.837 589.978 146.837 591.117C146.837 592.256 145.4 593.376 143.533 593.376C142.87 593.436 142.204 593.309 141.609 593.009C141.015 592.709 140.518 592.247 140.173 591.677C140.071 591.461 139.91 591.278 139.709 591.149C139.508 591.02 139.274 590.951 139.035 590.949H137.933C137.849 590.965 137.768 590.997 137.696 591.044C137.624 591.091 137.561 591.152 137.513 591.223C137.464 591.294 137.43 591.374 137.413 591.458C137.395 591.543 137.395 591.63 137.411 591.714C137.679 592.809 138.303 593.784 139.184 594.487C140.066 595.189 141.156 595.58 142.283 595.597V597.165C142.283 597.514 142.421 597.849 142.668 598.095C142.915 598.342 143.25 598.481 143.599 598.481C143.948 598.481 144.283 598.342 144.529 598.095C144.776 597.849 144.915 597.514 144.915 597.165V595.578C146.189 595.564 147.408 595.052 148.311 594.153C149.214 593.253 149.73 592.037 149.749 590.762C149.749 588.392 148.387 587.029 145.157 586.338L143.291 585.928C141.424 585.461 140.547 584.845 140.547 583.8C140.547 582.754 141.667 581.597 143.533 581.597C144.121 581.536 144.714 581.646 145.241 581.914C145.768 582.182 146.205 582.597 146.501 583.109C146.621 583.364 146.811 583.581 147.049 583.733C147.287 583.885 147.563 583.966 147.845 583.968H148.723C148.922 583.919 149.095 583.794 149.203 583.619C149.311 583.445 149.346 583.235 149.301 583.034C149.049 582.023 148.483 581.118 147.685 580.448C146.887 579.777 145.898 579.376 144.859 579.301V578.013C144.859 577.664 144.72 577.329 144.473 577.082C144.227 576.836 143.892 576.697 143.543 576.697C143.194 576.697 142.859 576.836 142.612 577.082C142.365 577.329 142.227 577.664 142.227 578.013V579.394V579.394ZM127.088 587.533C127.09 590.971 128.173 594.322 130.182 597.113C132.192 599.903 135.027 601.991 138.288 603.082H138.549C138.772 603.082 138.986 602.994 139.143 602.836C139.301 602.679 139.389 602.465 139.389 602.242V601.85C139.39 601.503 139.287 601.163 139.095 600.874C138.902 600.585 138.628 600.359 138.307 600.226C135.767 599.201 133.592 597.441 132.06 595.171C130.529 592.901 129.71 590.225 129.71 587.486C129.71 584.748 130.529 582.072 132.06 579.802C133.592 577.532 135.767 575.771 138.307 574.746C138.626 574.616 138.9 574.394 139.093 574.109C139.286 573.823 139.389 573.486 139.389 573.141V572.712C139.391 572.586 139.361 572.461 139.304 572.349C139.247 572.236 139.164 572.139 139.061 572.066C138.959 571.993 138.84 571.945 138.715 571.928C138.59 571.91 138.463 571.923 138.344 571.965C135.07 573.048 132.22 575.135 130.2 577.929C128.179 580.724 127.09 584.084 127.088 587.533V587.533ZM159.979 587.533C159.973 584.098 158.889 580.751 156.879 577.964C154.87 575.178 152.036 573.093 148.779 572.002H148.499C148.266 572.002 148.043 572.095 147.878 572.259C147.714 572.424 147.621 572.647 147.621 572.88V573.16C147.629 573.52 147.74 573.87 147.942 574.168C148.145 574.466 148.428 574.699 148.76 574.84C151.294 575.868 153.463 577.628 154.99 579.896C156.518 582.164 157.333 584.836 157.333 587.57C157.333 590.305 156.518 592.977 154.99 595.244C153.463 597.512 151.294 599.273 148.76 600.301C148.435 600.443 148.157 600.674 147.958 600.969C147.76 601.263 147.65 601.608 147.64 601.962V602.28C147.642 602.418 147.676 602.554 147.74 602.677C147.804 602.799 147.897 602.905 148.01 602.985C148.122 603.065 148.253 603.117 148.39 603.137C148.527 603.158 148.666 603.145 148.797 603.101C152.058 602.005 154.891 599.913 156.898 597.119C158.904 594.326 159.982 590.972 159.979 587.533V587.533Z" fill="white"/>
<path d="M102 282C117.464 282 130 269.464 130 254C130 238.536 117.464 226 102 226C86.536 226 74 238.536 74 254C74 269.464 86.536 282 102 282Z" fill="black"/>
<path d="M102 282C117.464 282 130 269.464 130 254C130 238.536 117.464 226 102 226C86.536 226 74 238.536 74 254C74 269.464 86.536 282 102 282Z" fill="#26A17B"/>
<path style="mix-blend-mode:soft-light" d="M102 282C117.464 282 130 269.464 130 254C130 238.536 117.464 226 102 226C86.536 226 74 238.536 74 254C74 269.464 86.536 282 102 282Z" fill="url(#paint3_linear_2009_38086)"/>
<g filter="url(#filter0_d_2009_38086)">
<path d="M105.587 256.581V256.578C105.382 256.593 104.324 256.656 101.962 256.656C100.077 256.656 98.7499 256.6 98.2832 256.578V256.583C91.0256 256.264 85.6085 255 85.6085 253.488C85.6085 251.978 91.0256 250.714 98.2832 250.39V255.325C98.7573 255.359 100.116 255.439 101.994 255.439C104.247 255.439 105.377 255.346 105.587 255.327V250.393C112.83 250.716 118.234 251.98 118.234 253.488C118.234 255 112.83 256.26 105.587 256.581V256.581ZM105.587 249.88V245.463H115.694V238.729H88.1771V245.463H98.2832V249.878C90.0699 250.255 83.8931 251.883 83.8931 253.832C83.8931 255.781 90.0699 257.406 98.2832 257.785V271.938H105.587V257.782C113.788 257.405 119.95 255.779 119.95 253.832C119.95 251.885 113.788 250.259 105.587 249.88" fill="black"/>
</g>
<path d="M105.587 256.581V256.578C105.382 256.593 104.324 256.656 101.962 256.656C100.077 256.656 98.7499 256.6 98.2832 256.578V256.583C91.0256 256.264 85.6085 255 85.6085 253.488C85.6085 251.978 91.0256 250.714 98.2832 250.39V255.325C98.7573 255.359 100.116 255.439 101.994 255.439C104.247 255.439 105.377 255.346 105.587 255.327V250.393C112.83 250.716 118.234 251.98 118.234 253.488C118.234 255 112.83 256.26 105.587 256.581V256.581ZM105.587 249.88V245.463H115.694V238.729H88.1771V245.463H98.2832V249.878C90.0699 250.255 83.8931 251.883 83.8931 253.832C83.8931 255.781 90.0699 257.406 98.2832 257.785V271.938H105.587V257.782C113.788 257.405 119.95 255.779 119.95 253.832C119.95 251.885 113.788 250.259 105.587 249.88" fill="white"/>
<path d="M1342 226C1357.47 226 1370 238.537 1370 254C1370 269.465 1357.47 282 1342 282C1326.54 282 1314 269.464 1314 254C1314 238.537 1326.54 226 1342 226Z" fill="#F5AC37"/>
<path d="M1343.02 256.018H1353.66C1353.89 256.018 1354 256.018 1354.01 255.721C1354.1 254.638 1354.1 253.55 1354.01 252.466C1354.01 252.256 1353.91 252.169 1353.68 252.169H1332.51C1332.24 252.169 1332.17 252.256 1332.17 252.502V255.616C1332.17 256.018 1332.17 256.018 1332.59 256.018H1343.02V256.018ZM1352.82 248.529C1352.85 248.449 1352.85 248.362 1352.82 248.284C1352.65 247.897 1352.44 247.528 1352.19 247.182C1351.82 246.59 1351.39 246.044 1350.9 245.554C1350.66 245.258 1350.39 244.992 1350.09 244.766C1348.58 243.477 1346.78 242.565 1344.84 242.106C1343.86 241.887 1342.87 241.783 1341.87 241.791H1332.47C1332.21 241.791 1332.17 241.896 1332.17 242.124V248.336C1332.17 248.598 1332.17 248.669 1332.5 248.669H1352.7C1352.7 248.669 1352.87 248.633 1352.91 248.529H1352.82H1352.82ZM1352.82 259.658C1352.53 259.626 1352.23 259.626 1351.93 259.658H1332.52C1332.26 259.658 1332.17 259.658 1332.17 260.009V266.082C1332.17 266.362 1332.17 266.432 1332.52 266.432H1341.48C1341.91 266.465 1342.34 266.435 1342.76 266.345C1344.06 266.252 1345.34 265.97 1346.56 265.505C1347 265.351 1347.43 265.151 1347.83 264.91H1347.96C1350.06 263.818 1351.76 262.102 1352.84 259.995C1352.84 259.995 1352.96 259.73 1352.82 259.661V259.658ZM1328.66 269.581V269.476V265.399V264.017V259.904C1328.66 259.676 1328.66 259.642 1328.38 259.642H1324.58C1324.37 259.642 1324.28 259.642 1324.28 259.362V256.037H1328.34C1328.57 256.037 1328.66 256.037 1328.66 255.74V252.45C1328.66 252.239 1328.66 252.188 1328.38 252.188H1324.58C1324.37 252.188 1324.28 252.188 1324.28 251.908V248.829C1324.28 248.636 1324.28 248.584 1324.56 248.584H1328.32C1328.59 248.584 1328.66 248.584 1328.66 248.251V238.819C1328.66 238.539 1328.66 238.469 1329.01 238.469H1342.13C1343.08 238.507 1344.03 238.611 1344.97 238.784C1346.89 239.14 1348.75 239.83 1350.44 240.814C1351.57 241.475 1352.6 242.274 1353.52 243.194C1354.22 243.913 1354.84 244.692 1355.39 245.521C1355.95 246.361 1356.4 247.26 1356.76 248.199C1356.81 248.443 1357.04 248.608 1357.29 248.566H1360.42C1360.82 248.566 1360.82 248.566 1360.84 248.952V251.822C1360.84 252.102 1360.73 252.173 1360.45 252.173H1358.04C1357.79 252.173 1357.72 252.173 1357.74 252.488C1357.83 253.554 1357.83 254.623 1357.74 255.689C1357.74 255.987 1357.74 256.022 1358.07 256.022H1360.84C1360.96 256.179 1360.84 256.337 1360.84 256.496C1360.85 256.699 1360.85 256.904 1360.84 257.107V259.225C1360.84 259.522 1360.75 259.611 1360.49 259.611H1357.18C1356.95 259.566 1356.72 259.714 1356.67 259.943C1355.88 261.991 1354.62 263.827 1352.99 265.298C1352.4 265.834 1351.77 266.338 1351.12 266.803C1350.42 267.206 1349.74 267.625 1349.02 267.958C1347.7 268.553 1346.31 268.991 1344.89 269.27C1343.54 269.512 1342.17 269.621 1340.8 269.602H1328.65V269.585L1328.66 269.581Z" fill="#FEFEFD"/>
</g>
<defs>
<filter id="filter0_d_2009_38086" x="82.8931" y="238.229" width="38.0566" height="35.209" filterUnits="userSpaceOnUse" color-interpolation-filters="sRGB">
<feFlood flood-opacity="0" result="BackgroundImageFix"/>
<feColorMatrix in="SourceAlpha" type="matrix" values="0 0 0 0 0 0 0 0 0 0 0 0 0 0 0 0 0 0 127 0" result="hardAlpha"/>
<feOffset dy="0.5"/>
<feGaussianBlur stdDeviation="0.5"/>
<feColorMatrix type="matrix" values="0 0 0 0 0 0 0 0 0 0 0 0 0 0 0 0 0 0 0.204257 0"/>
<feBlend mode="normal" in2="BackgroundImageFix" result="effect1_dropShadow_2009_38086"/>
<feBlend mode="normal" in="SourceGraphic" in2="effect1_dropShadow_2009_38086" result="shape"/>
</filter>
<radialGradient id="paint0_radial_2009_38086" cx="0" cy="0" r="1" gradientUnits="userSpaceOnUse" gradientTransform="translate(704 526) rotate(23.5581) scale(690.554)">
<stop stop-color="white"/>
<stop offset="1" stop-color="white" stop-opacity="0"/>
</radialGradient>
<radialGradient id="paint1_radial_2009_38086" cx="0" cy="0" r="1" gradientUnits="userSpaceOnUse" gradientTransform="translate(696.421 485.872) rotate(23.5581) scale(986.826)">
<stop stop-color="white"/>
<stop offset="1" stop-color="white" stop-opacity="0"/>
</radialGradient>
<linearGradient id="paint2_linear_2009_38086" x1="144" y1="560" x2="144" y2="616" gradientUnits="userSpaceOnUse">
<stop stop-color="white" stop-opacity="0.5"/>
<stop offset="1" stop-opacity="0.5"/>
</linearGradient>
<linearGradient id="paint3_linear_2009_38086" x1="102" y1="226" x2="102" y2="282" gradientUnits="userSpaceOnUse">
<stop stop-color="white" stop-opacity="0.5"/>
<stop offset="1" stop-opacity="0.5"/>
</linearGradient>
<clipPath id="clip0_2009_38086">
<rect width="1440" height="845" fill="white"/>
</clipPath>
</defs>
</svg>
