<?xml version="1.0" standalone="no"?>
<!DOCTYPE svg PUBLIC "-//W3C//DTD SVG 20010904//EN"
 "http://www.w3.org/TR/2001/REC-SVG-20010904/DTD/svg10.dtd">
<svg version="1.0" xmlns="http://www.w3.org/2000/svg"
 width="512.000000pt" height="512.000000pt" viewBox="0 0 512.000000 512.000000"
 preserveAspectRatio="xMidYMid meet">
<metadata>
Created by potrace 1.14, written by Peter Selinger 2001-2017
</metadata>
<g transform="translate(0.000000,512.000000) scale(0.100000,-0.100000)"
fill="#000000" stroke="none">
<path d="M2380 4870 c-30 -4 -82 -10 -115 -14 -133 -15 -398 -85 -520 -137
-16 -7 -32 -13 -35 -14 -149 -51 -451 -229 -594 -350 -124 -105 -156 -136
-297 -285 -9 -10 -48 -59 -88 -111 -39 -52 -75 -98 -79 -104 -16 -20 -117
-191 -136 -230 -11 -22 -24 -43 -29 -46 -5 -3 -8 -9 -7 -13 2 -4 -5 -22 -13
-39 -48 -99 -132 -317 -121 -317 2 0 0 -9 -6 -21 -6 -11 -13 -28 -15 -37 -2
-9 -15 -66 -29 -127 -41 -185 -51 -277 -50 -510 0 -171 3 -229 20 -345 7 -51
33 -179 45 -225 6 -22 12 -47 14 -55 8 -37 59 -186 66 -194 5 -6 9 -16 9 -24
0 -23 101 -239 154 -327 51 -86 133 -210 151 -228 9 -9 13 -17 8 -17 -4 0 -3
-4 2 -8 6 -4 30 -32 55 -62 25 -30 55 -65 68 -78 12 -13 22 -26 22 -31 0 -4
11 -14 25 -21 14 -7 23 -15 21 -17 -6 -7 120 -124 210 -196 181 -145 363 -254
584 -349 33 -15 221 -79 285 -98 49 -14 221 -50 267 -55 24 -2 72 -8 108 -12
84 -10 404 -10 495 0 207 23 476 92 645 166 19 8 37 15 40 16 10 1 196 95 240
121 295 171 549 403 742 678 32 44 62 86 68 93 5 7 10 15 10 18 0 3 10 22 23
43 46 74 116 209 150 292 32 78 94 253 102 290 2 8 13 55 25 104 11 50 23 106
26 125 2 20 6 45 9 56 20 95 27 475 12 595 -4 30 -10 75 -13 100 -7 60 -51
256 -71 322 -9 29 -17 55 -18 58 -1 3 -5 14 -9 25 -5 11 -22 56 -38 100 -17
44 -35 86 -40 93 -6 6 -8 12 -4 12 11 0 -115 233 -179 330 -141 217 -297 388
-505 555 -92 75 -288 205 -307 205 -6 0 -13 3 -15 8 -4 10 -188 103 -188 96 0
-4 -6 -2 -12 4 -11 9 -55 26 -218 87 -41 15 -220 61 -270 70 -19 3 -42 8 -50
10 -8 3 -37 7 -65 10 -27 3 -66 8 -85 11 -53 9 -417 12 -480 4z"/>
</g>
</svg>
