<svg width="178" height="44" viewBox="0 0 178 44" fill="none" xmlns="http://www.w3.org/2000/svg">
<path d="M27.909 12.877C25.4182 11.439 22.2332 12.2924 20.7951 14.7832L12.0867 29.8665C11.8327 30.3066 11.9834 30.8693 12.4235 31.1234C14.9144 32.5615 18.0994 31.7081 19.5375 29.2173L28.2458 14.134C28.4999 13.6939 28.3491 13.1311 27.909 12.877Z" stroke="url(#paint0_linear_676_4646)" stroke-width="1.54458"/>
<path d="M23.2121 30.9147C23.2121 31.4229 23.624 31.8348 24.1322 31.8348H26.8839C29.7592 31.8348 32.09 29.504 32.09 26.6287C32.09 26.1206 31.6781 25.7086 31.1699 25.7086H28.4181C25.5429 25.7086 23.2121 28.0395 23.2121 30.9147Z" stroke="url(#paint1_linear_676_4646)" stroke-width="1.54458"/>
<path d="M61.28 24.944H60.272L66.224 15.648H68.352V26H66.224V18.48L66.736 18.624L61.984 26H59.6L54.848 18.656L55.36 18.512V26H53.232V15.648H55.36L61.28 24.944ZM74.8261 23.744V21.968H81.6741V23.744H74.8261ZM72.2501 26L77.1141 15.648H79.4181L84.3301 26H82.0101L77.7541 16.672H78.7781L74.5541 26H72.2501ZM90.1071 19.92H98.3151V21.696H90.1071V19.92ZM97.9631 15.648H100.091V26H97.9631V15.648ZM88.2351 15.648H90.3631V26H88.2351V15.648ZM106.564 23.744V21.968H113.412V23.744H106.564ZM103.988 26L108.852 15.648H111.156L116.068 26H113.748L109.492 16.672H110.516L106.292 26H103.988ZM122.101 15.648V24.224H128.981V26H119.973V15.648H122.101ZM135.485 21.68V24.224H143.469V26H133.357V15.648H143.453V17.424H135.485V20H142.013V21.68H135.485ZM158.55 23.888L157.878 24.16V15.648H160.006V26H157.878L149.51 17.824L150.182 17.552V26H148.054V15.648H150.182L158.55 23.888ZM170.796 15.648C171.958 15.648 172.929 15.7867 173.708 16.064C174.486 16.3413 175.105 16.72 175.564 17.2C176.033 17.6693 176.364 18.2133 176.556 18.832C176.758 19.4507 176.86 20.1013 176.86 20.784C176.86 21.4667 176.748 22.1227 176.524 22.752C176.31 23.3813 175.964 23.9413 175.484 24.432C175.014 24.912 174.39 25.296 173.612 25.584C172.844 25.8613 171.905 26 170.796 26H164.876V15.648H170.796ZM167.004 24.176H170.748C171.516 24.176 172.15 24.0853 172.652 23.904C173.164 23.712 173.569 23.456 173.868 23.136C174.166 22.816 174.38 22.4533 174.508 22.048C174.636 21.6427 174.7 21.2213 174.7 20.784C174.7 20.3467 174.636 19.9307 174.508 19.536C174.38 19.1413 174.166 18.7893 173.868 18.48C173.569 18.1707 173.164 17.9253 172.652 17.744C172.15 17.5627 171.516 17.472 170.748 17.472H167.004V24.176Z" fill="#151414"/>
<path d="M79.6295 16.9537C79.3912 16.3703 78.8102 15.957 78.1296 15.957C77.4513 15.957 76.8703 16.3679 76.6321 16.9488L71.9258 26.9765H74.2935L75.3486 24.6525H80.9203L81.9778 26.9765H84.3674L79.6295 16.9537ZM76.1775 22.8245L78.1271 18.5265L80.084 22.8245H76.1775Z" fill="#151414"/>
<path d="M111.704 16.9537C111.465 16.3703 110.884 15.957 110.204 15.957C109.526 15.957 108.945 16.3679 108.706 16.9488L104 26.9765H106.368L107.423 24.6525H112.995L114.052 26.9765H116.442L111.704 16.9537ZM108.252 22.8245L110.201 18.5265L112.158 22.8245H108.252Z" fill="#151414"/>
<defs>
<linearGradient id="paint0_linear_676_4646" x1="12.7184" y1="32.6565" x2="23.5802" y2="34.6514" gradientUnits="userSpaceOnUse">
<stop stop-color="#FF8506"/>
<stop offset="0.5805" stop-color="#FD3947"/>
<stop offset="1" stop-color="#FB0078"/>
</linearGradient>
<linearGradient id="paint1_linear_676_4646" x1="23.9763" y1="32.1831" x2="32.2587" y2="29.5848" gradientUnits="userSpaceOnUse">
<stop stop-color="#FF8506"/>
<stop offset="0.5805" stop-color="#FD3947"/>
<stop offset="1" stop-color="#FB0078"/>
</linearGradient>
</defs>
</svg>
