<svg width="410" height="312" viewBox="0 0 410 312" fill="none" xmlns="http://www.w3.org/2000/svg">
<path d="M25.3536 19.6464C25.1583 19.4512 24.8417 19.4512 24.6464 19.6464L21.4645 22.8284C21.2692 23.0237 21.2692 23.3403 21.4645 23.5355C21.6597 23.7308 21.9763 23.7308 22.1716 23.5355L25 20.7071L27.8284 23.5355C28.0237 23.7308 28.3403 23.7308 28.5355 23.5355C28.7308 23.3403 28.7308 23.0237 28.5355 22.8284L25.3536 19.6464ZM25 289.5H24.5V290H25V289.5ZM405.854 289.854C406.049 289.658 406.049 289.342 405.854 289.146L402.672 285.964C402.476 285.769 402.16 285.769 401.964 285.964C401.769 286.16 401.769 286.476 401.964 286.672L404.793 289.5L401.964 292.328C401.769 292.524 401.769 292.84 401.964 293.036C402.16 293.231 402.476 293.231 402.672 293.036L405.854 289.854ZM24.5 20V289.5H25.5V20H24.5ZM25 290H405.5V289H25V290Z" fill="#121212" fill-opacity="0.64"/>
<path d="M379 27C321.5 208 119.833 246.5 41 257.5L379 251.5V27Z" fill="url(#paint0_linear_676_4522)"/>
<path d="M40.5 257.5C40.5 257.5 315.5 235 378 30" stroke="#F7653B" stroke-width="2" stroke-linecap="round"/>
<path d="M178.277 309V301.374H175.331V300.36H182.291V301.374H179.345V309H178.277ZM185.093 309.18C184.457 309.18 183.901 309.04 183.425 308.76C182.953 308.476 182.585 308.082 182.321 307.578C182.057 307.07 181.925 306.478 181.925 305.802C181.925 305.094 182.055 304.482 182.315 303.966C182.575 303.446 182.937 303.046 183.401 302.766C183.869 302.482 184.417 302.34 185.045 302.34C185.697 302.34 186.251 302.49 186.707 302.79C187.167 303.09 187.511 303.518 187.739 304.074C187.971 304.63 188.071 305.292 188.039 306.06H186.959V305.676C186.947 304.88 186.785 304.286 186.473 303.894C186.161 303.498 185.697 303.3 185.081 303.3C184.421 303.3 183.919 303.512 183.575 303.936C183.231 304.36 183.059 304.968 183.059 305.76C183.059 306.524 183.231 307.116 183.575 307.536C183.919 307.956 184.409 308.166 185.045 308.166C185.473 308.166 185.845 308.068 186.161 307.872C186.477 307.676 186.725 307.394 186.905 307.026L187.931 307.38C187.679 307.952 187.299 308.396 186.791 308.712C186.287 309.024 185.721 309.18 185.093 309.18ZM182.699 306.06V305.202H187.487V306.06H182.699ZM193.813 309V305.754C193.813 305.446 193.785 305.15 193.729 304.866C193.677 304.582 193.583 304.328 193.447 304.104C193.315 303.876 193.135 303.696 192.907 303.564C192.683 303.432 192.399 303.366 192.055 303.366C191.787 303.366 191.543 303.412 191.323 303.504C191.107 303.592 190.921 303.728 190.765 303.912C190.609 304.096 190.487 304.328 190.399 304.608C190.315 304.884 190.273 305.21 190.273 305.586L189.571 305.37C189.571 304.742 189.683 304.204 189.907 303.756C190.135 303.304 190.453 302.958 190.861 302.718C191.273 302.474 191.757 302.352 192.313 302.352C192.733 302.352 193.091 302.418 193.387 302.55C193.683 302.682 193.929 302.858 194.125 303.078C194.321 303.294 194.475 303.538 194.587 303.81C194.699 304.078 194.777 304.352 194.821 304.632C194.869 304.908 194.893 305.17 194.893 305.418V309H193.813ZM189.193 309V302.52H190.153V304.254H190.273V309H189.193ZM198.913 309.168C198.497 309.168 198.139 309.102 197.839 308.97C197.543 308.838 197.297 308.662 197.101 308.442C196.905 308.222 196.751 307.978 196.639 307.71C196.527 307.442 196.447 307.168 196.399 306.888C196.355 306.608 196.333 306.346 196.333 306.102V302.52H197.413V305.766C197.413 306.07 197.441 306.364 197.497 306.648C197.553 306.932 197.647 307.188 197.779 307.416C197.915 307.644 198.095 307.824 198.319 307.956C198.547 308.088 198.831 308.154 199.171 308.154C199.439 308.154 199.683 308.108 199.903 308.016C200.123 307.924 200.311 307.788 200.467 307.608C200.623 307.424 200.743 307.192 200.827 306.912C200.911 306.632 200.953 306.306 200.953 305.934L201.655 306.15C201.655 306.774 201.541 307.312 201.313 307.764C201.089 308.216 200.771 308.564 200.359 308.808C199.951 309.048 199.469 309.168 198.913 309.168ZM201.073 309V307.266H200.953V302.52H202.027V309H201.073ZM203.707 309V302.52H204.661V304.086L204.505 303.882C204.581 303.682 204.679 303.498 204.799 303.33C204.923 303.162 205.061 303.024 205.213 302.916C205.381 302.78 205.571 302.676 205.783 302.604C205.995 302.532 206.211 302.49 206.431 302.478C206.651 302.462 206.857 302.476 207.049 302.52V303.522C206.825 303.462 206.579 303.446 206.311 303.474C206.043 303.502 205.795 303.6 205.567 303.768C205.359 303.916 205.197 304.096 205.081 304.308C204.969 304.52 204.891 304.75 204.847 304.998C204.803 305.242 204.781 305.492 204.781 305.748V309H203.707ZM210.875 309.18C210.239 309.18 209.683 309.04 209.207 308.76C208.735 308.476 208.367 308.082 208.103 307.578C207.839 307.07 207.707 306.478 207.707 305.802C207.707 305.094 207.837 304.482 208.097 303.966C208.357 303.446 208.719 303.046 209.183 302.766C209.651 302.482 210.199 302.34 210.827 302.34C211.479 302.34 212.033 302.49 212.489 302.79C212.949 303.09 213.293 303.518 213.521 304.074C213.753 304.63 213.853 305.292 213.821 306.06H212.741V305.676C212.729 304.88 212.567 304.286 212.255 303.894C211.943 303.498 211.479 303.3 210.863 303.3C210.203 303.3 209.701 303.512 209.357 303.936C209.013 304.36 208.841 304.968 208.841 305.76C208.841 306.524 209.013 307.116 209.357 307.536C209.701 307.956 210.191 308.166 210.827 308.166C211.255 308.166 211.627 308.068 211.943 307.872C212.259 307.676 212.507 307.394 212.687 307.026L213.713 307.38C213.461 307.952 213.081 308.396 212.573 308.712C212.069 309.024 211.503 309.18 210.875 309.18ZM208.481 306.06V305.202H213.269V306.06H208.481ZM220.637 311.196C220.169 310.656 219.767 310.05 219.431 309.378C219.095 308.706 218.837 308 218.657 307.26C218.477 306.52 218.391 305.78 218.399 305.04C218.391 304.296 218.477 303.554 218.657 302.814C218.837 302.074 219.095 301.37 219.431 300.702C219.767 300.03 220.169 299.424 220.637 298.884L221.429 299.484C220.957 300.044 220.569 300.626 220.265 301.23C219.965 301.834 219.743 302.456 219.599 303.096C219.455 303.732 219.381 304.38 219.377 305.04C219.381 305.692 219.455 306.34 219.599 306.984C219.747 307.624 219.971 308.248 220.271 308.856C220.575 309.46 220.961 310.038 221.429 310.59L220.637 311.196ZM223.498 311.88L224.752 308.472L224.77 309.48L221.938 302.52H223.06L225.28 308.118H224.896L226.978 302.52H228.064L224.536 311.88H223.498ZM229.055 309V302.52H230.009V304.086L229.853 303.882C229.929 303.682 230.027 303.498 230.147 303.33C230.271 303.162 230.409 303.024 230.561 302.916C230.729 302.78 230.919 302.676 231.131 302.604C231.343 302.532 231.559 302.49 231.779 302.478C231.999 302.462 232.205 302.476 232.397 302.52V303.522C232.173 303.462 231.927 303.446 231.659 303.474C231.391 303.502 231.143 303.6 230.915 303.768C230.707 303.916 230.545 304.096 230.429 304.308C230.317 304.52 230.239 304.75 230.195 304.998C230.151 305.242 230.129 305.492 230.129 305.748V309H229.055ZM235.745 309.174C234.973 309.174 234.339 309.006 233.843 308.67C233.351 308.33 233.049 307.856 232.937 307.248L234.029 307.074C234.117 307.426 234.319 307.706 234.635 307.914C234.951 308.118 235.343 308.22 235.811 308.22C236.255 308.22 236.603 308.128 236.855 307.944C237.107 307.76 237.233 307.51 237.233 307.194C237.233 307.01 237.191 306.862 237.107 306.75C237.023 306.634 236.849 306.526 236.585 306.426C236.325 306.326 235.931 306.206 235.403 306.066C234.831 305.914 234.381 305.756 234.053 305.592C233.725 305.428 233.491 305.238 233.351 305.022C233.211 304.806 233.141 304.544 233.141 304.236C233.141 303.856 233.245 303.524 233.453 303.24C233.661 302.952 233.951 302.73 234.323 302.574C234.699 302.418 235.135 302.34 235.631 302.34C236.123 302.34 236.563 302.418 236.951 302.574C237.339 302.73 237.651 302.952 237.887 303.24C238.127 303.524 238.269 303.856 238.313 304.236L237.221 304.434C237.169 304.086 237.001 303.812 236.717 303.612C236.437 303.412 236.075 303.306 235.631 303.294C235.211 303.278 234.869 303.352 234.605 303.516C234.345 303.68 234.215 303.902 234.215 304.182C234.215 304.338 234.263 304.472 234.359 304.584C234.459 304.696 234.641 304.802 234.905 304.902C235.173 305.002 235.561 305.116 236.069 305.244C236.641 305.388 237.091 305.546 237.419 305.718C237.751 305.886 237.987 306.086 238.127 306.318C238.267 306.546 238.337 306.828 238.337 307.164C238.337 307.788 238.107 308.28 237.647 308.64C237.187 308.996 236.553 309.174 235.745 309.174ZM239.876 311.196L239.084 310.59C239.552 310.038 239.936 309.46 240.236 308.856C240.54 308.248 240.766 307.624 240.914 306.984C241.062 306.34 241.136 305.692 241.136 305.04C241.136 304.38 241.062 303.732 240.914 303.096C240.77 302.456 240.546 301.834 240.242 301.23C239.942 300.626 239.556 300.044 239.084 299.484L239.876 298.884C240.344 299.424 240.746 300.03 241.082 300.702C241.422 301.37 241.68 302.074 241.856 302.814C242.036 303.554 242.122 304.296 242.114 305.04C242.122 305.78 242.036 306.52 241.856 307.26C241.68 308 241.422 308.706 241.082 309.378C240.746 310.05 240.344 310.656 239.876 311.196Z" fill="#1F1E1E"/>
<path d="M11 178.043L2.36 178.043L2.36 174.707C2.36 174.623 2.364 174.529 2.372 174.425C2.376 174.317 2.388 174.209 2.408 174.101C2.476 173.649 2.634 173.267 2.882 172.955C3.126 172.639 3.434 172.401 3.806 172.241C4.178 172.077 4.59 171.995 5.042 171.995C5.694 171.995 6.26 172.167 6.74 172.511C7.22 172.855 7.522 173.347 7.646 173.987L7.718 174.293L7.718 177.161L11 177.161L11 178.043ZM11 172.811L7.484 174.515L7.16 173.669L11 171.797L11 172.811ZM6.878 177.161L6.878 174.731C6.878 174.659 6.874 174.575 6.866 174.479C6.858 174.383 6.844 174.289 6.824 174.197C6.76 173.901 6.638 173.659 6.458 173.471C6.278 173.279 6.064 173.137 5.816 173.045C5.568 172.949 5.31 172.901 5.042 172.901C4.774 172.901 4.516 172.949 4.268 173.045C4.016 173.137 3.8 173.279 3.62 173.471C3.44 173.659 3.318 173.901 3.254 174.197C3.234 174.289 3.222 174.383 3.218 174.479C3.21 174.575 3.206 174.659 3.206 174.731L3.206 177.161L6.878 177.161ZM11.18 167.73C11.18 168.362 11.04 168.91 10.76 169.374C10.48 169.834 10.086 170.192 9.578 170.448C9.07 170.704 8.474 170.832 7.79 170.832C7.082 170.832 6.47 170.706 5.954 170.454C5.438 170.202 5.04 169.848 4.76 169.392C4.48 168.932 4.34 168.39 4.34 167.766C4.34 167.126 4.488 166.58 4.784 166.128C5.076 165.676 5.496 165.334 6.044 165.102C6.592 164.87 7.246 164.764 8.006 164.784L8.006 165.684L7.694 165.684C6.854 165.7 6.22 165.882 5.792 166.23C5.364 166.574 5.15 167.078 5.15 167.742C5.15 168.438 5.376 168.972 5.828 169.344C6.28 169.712 6.924 169.896 7.76 169.896C8.576 169.896 9.21 169.712 9.662 169.344C10.11 168.972 10.334 168.446 10.334 167.766C10.334 167.302 10.228 166.898 10.016 166.554C9.8 166.206 9.49 165.932 9.086 165.732L9.404 164.91C9.968 165.166 10.406 165.544 10.718 166.044C11.026 166.54 11.18 167.102 11.18 167.73ZM8.006 170.208L7.268 170.208L7.268 165.258L8.006 165.258L8.006 170.208ZM11 159.925C11.076 160.289 11.106 160.649 11.09 161.005C11.074 161.357 10.998 161.673 10.862 161.953C10.726 162.229 10.514 162.439 10.226 162.583C9.986 162.699 9.744 162.763 9.5 162.775C9.252 162.783 8.97 162.787 8.654 162.787L2.72 162.787L2.72 161.911L8.618 161.911C8.89 161.911 9.118 161.909 9.302 161.905C9.482 161.897 9.642 161.855 9.782 161.779C10.05 161.635 10.21 161.407 10.262 161.095C10.314 160.779 10.302 160.389 10.226 159.925L11 159.925ZM5.276 164.173L4.52 164.173L4.52 159.925L5.276 159.925L5.276 164.173ZM11.162 156.17C11.162 156.558 11.102 156.898 10.982 157.19C10.862 157.478 10.7 157.724 10.496 157.928C10.292 158.128 10.06 158.29 9.8 158.414C9.536 158.538 9.258 158.628 8.966 158.684C8.67 158.74 8.376 158.768 8.084 158.768L4.52 158.768L4.52 157.88L7.826 157.88C8.182 157.88 8.512 157.846 8.816 157.778C9.12 157.71 9.386 157.602 9.614 157.454C9.838 157.302 10.012 157.108 10.136 156.872C10.26 156.632 10.322 156.342 10.322 156.002C10.322 155.69 10.268 155.416 10.16 155.18C10.052 154.94 9.898 154.74 9.698 154.58C9.494 154.416 9.248 154.292 8.96 154.208C8.668 154.124 8.34 154.082 7.976 154.082L8.114 153.458C8.778 153.458 9.336 153.574 9.788 153.806C10.24 154.038 10.582 154.358 10.814 154.766C11.046 155.174 11.162 155.642 11.162 156.17ZM11 153.992L9.404 153.992L9.404 154.082L4.52 154.082L4.52 153.2L11 153.2L11 153.992ZM11 151.523L4.52 151.523L4.52 150.731L6.08 150.731L5.876 150.887C5.684 150.815 5.508 150.721 5.348 150.605C5.184 150.489 5.05 150.363 4.946 150.227C4.798 150.059 4.686 149.863 4.61 149.639C4.53 149.415 4.484 149.189 4.472 148.961C4.456 148.733 4.472 148.525 4.52 148.337L5.348 148.337C5.288 148.573 5.274 148.831 5.306 149.111C5.338 149.391 5.45 149.649 5.642 149.885C5.81 150.101 6.012 150.263 6.248 150.371C6.48 150.479 6.728 150.551 6.992 150.587C7.252 150.623 7.51 150.641 7.766 150.641L11 150.641L11 151.523ZM11 142.519L7.694 142.519C7.334 142.519 7.004 142.553 6.704 142.621C6.4 142.689 6.136 142.799 5.912 142.951C5.684 143.099 5.508 143.293 5.384 143.533C5.26 143.769 5.198 144.057 5.198 144.397C5.198 144.709 5.252 144.985 5.36 145.225C5.468 145.461 5.624 145.661 5.828 145.825C6.028 145.985 6.272 146.107 6.56 146.191C6.848 146.275 7.176 146.317 7.544 146.317L7.406 146.941C6.742 146.941 6.184 146.825 5.732 146.593C5.28 146.361 4.938 146.041 4.706 145.633C4.474 145.225 4.358 144.757 4.358 144.229C4.358 143.841 4.418 143.503 4.538 143.215C4.658 142.923 4.82 142.677 5.024 142.477C5.228 142.273 5.462 142.109 5.726 141.985C5.986 141.861 6.264 141.771 6.56 141.715C6.852 141.659 7.144 141.631 7.436 141.631L11 141.631L11 142.519ZM11 147.205L4.52 147.205L4.52 146.407L6.116 146.407L6.116 146.317L11 146.317L11 147.205ZM11.174 137.656C11.174 138.416 11.01 139.042 10.682 139.534C10.354 140.022 9.898 140.322 9.314 140.434L9.164 139.534C9.532 139.438 9.826 139.22 10.046 138.88C10.262 138.536 10.37 138.112 10.37 137.608C10.37 137.116 10.268 136.728 10.064 136.444C9.856 136.16 9.574 136.018 9.218 136.018C9.018 136.018 8.856 136.064 8.732 136.156C8.604 136.244 8.486 136.426 8.378 136.702C8.27 136.978 8.142 137.39 7.994 137.938C7.834 138.526 7.674 138.986 7.514 139.318C7.354 139.65 7.17 139.886 6.962 140.026C6.75 140.166 6.492 140.236 6.188 140.236C5.82 140.236 5.498 140.132 5.222 139.924C4.942 139.716 4.726 139.428 4.574 139.06C4.418 138.692 4.34 138.264 4.34 137.776C4.34 137.288 4.42 136.852 4.58 136.468C4.736 136.08 4.956 135.768 5.24 135.532C5.524 135.296 5.854 135.156 6.23 135.112L6.392 136.012C6.012 136.072 5.712 136.262 5.492 136.582C5.268 136.898 5.152 137.3 5.144 137.788C5.132 138.248 5.22 138.622 5.408 138.91C5.592 139.198 5.838 139.342 6.146 139.342C6.318 139.342 6.466 139.29 6.59 139.186C6.71 139.082 6.824 138.894 6.932 138.622C7.04 138.346 7.158 137.954 7.286 137.446C7.438 136.85 7.598 136.382 7.766 136.042C7.934 135.702 8.132 135.46 8.36 135.316C8.588 135.172 8.87 135.1 9.206 135.1C9.818 135.1 10.3 135.328 10.652 135.784C11 136.236 11.174 136.86 11.174 137.656ZM13.154 128.265C12.614 128.737 12.01 129.143 11.342 129.483C10.678 129.819 9.98 130.079 9.248 130.263C8.516 130.443 7.78 130.531 7.04 130.527C6.3 130.531 5.564 130.443 4.832 130.263C4.096 130.079 3.396 129.819 2.732 129.483C2.068 129.143 1.466 128.737 0.925996 128.265L1.43 127.617C1.986 128.081 2.57 128.469 3.182 128.781C3.79 129.093 4.418 129.327 5.066 129.483C5.714 129.635 6.372 129.713 7.04 129.717C7.7 129.713 8.358 129.633 9.014 129.477C9.666 129.317 10.3 129.083 10.916 128.775C11.528 128.463 12.102 128.077 12.638 127.617L13.154 128.265ZM12.182 124.458L10.814 124.458L10.814 123.576L12.182 123.576L12.182 124.458ZM2.54 124.458L1.166 124.458L1.166 123.576L2.54 123.576L2.54 124.458ZM11.18 123.912C11.18 124.484 11.078 125 10.874 125.46C10.67 125.916 10.382 126.294 10.01 126.594C9.638 126.89 9.198 127.084 8.69 127.176L8.54 126.318C9.092 126.186 9.53 125.902 9.854 125.466C10.174 125.026 10.334 124.496 10.334 123.876C10.334 123.248 10.182 122.74 9.878 122.352C9.57 121.964 9.168 121.77 8.672 121.77C8.304 121.77 8.01 121.878 7.79 122.094C7.57 122.31 7.382 122.676 7.226 123.192L6.626 125.112C6.262 126.272 5.574 126.852 4.562 126.852C4.09 126.852 3.676 126.736 3.32 126.504C2.96 126.268 2.68 125.942 2.48 125.526C2.28 125.106 2.182 124.616 2.186 124.056C2.186 123.508 2.29 123.018 2.498 122.586C2.702 122.15 2.992 121.792 3.368 121.512C3.744 121.232 4.19 121.046 4.706 120.954L4.874 121.836C4.506 121.892 4.184 122.022 3.908 122.226C3.632 122.426 3.418 122.684 3.266 123C3.11 123.316 3.03 123.668 3.026 124.056C3.026 124.424 3.09 124.752 3.218 125.04C3.346 125.328 3.524 125.556 3.752 125.724C3.976 125.888 4.234 125.97 4.526 125.97C4.846 125.97 5.118 125.856 5.342 125.628C5.562 125.396 5.748 125.03 5.9 124.53L6.398 122.88C6.606 122.184 6.886 121.682 7.238 121.374C7.59 121.066 8.06 120.912 8.648 120.912C9.156 120.912 9.6 121.036 9.98 121.284C10.36 121.532 10.656 121.882 10.868 122.334C11.076 122.782 11.18 123.308 11.18 123.912ZM13.154 120.057L12.638 120.705C12.102 120.245 11.528 119.861 10.916 119.553C10.3 119.241 9.666 119.007 9.014 118.851C8.358 118.691 7.7 118.609 7.04 118.605C6.372 118.609 5.714 118.689 5.066 118.845C4.418 118.997 3.79 119.229 3.182 119.541C2.57 119.853 1.986 120.241 1.43 120.705L0.925996 120.057C1.466 119.585 2.068 119.181 2.732 118.845C3.396 118.505 4.096 118.245 4.832 118.065C5.564 117.881 6.3 117.791 7.04 117.795C7.78 117.791 8.516 117.881 9.248 118.065C9.98 118.245 10.678 118.505 11.342 118.845C12.01 119.181 12.614 119.585 13.154 120.057Z" fill="#1F1E1E"/>
<circle cx="326" cy="124" r="4" fill="#FA4C4C"/>
<circle cx="231" cy="199" r="4" fill="#FA4C4C"/>
<circle cx="136" cy="238" r="4" fill="#FA4C4C"/>
<circle cx="41" cy="258" r="4" fill="#FA4C4C"/>
<defs>
<linearGradient id="paint0_linear_676_4522" x1="201.5" y1="-1.49999" x2="252.5" y2="242.5" gradientUnits="userSpaceOnUse">
<stop stop-color="#FA4C4C"/>
<stop offset="1" stop-color="#FA4C4C" stop-opacity="0"/>
</linearGradient>
</defs>
</svg>
