<svg width="317" height="287" viewBox="0 0 317 287" fill="none" xmlns="http://www.w3.org/2000/svg">
<path d="M281.859 124.533H118.383V124.36C110.845 123.497 103.922 119.788 99.0266 113.991C94.1312 108.195 91.6335 100.749 92.0435 93.1728C92.4536 85.597 95.7404 78.4635 101.233 73.2294C106.725 67.9952 114.008 65.0554 121.595 65.0104C122.821 65.0129 124.045 65.0921 125.26 65.2476C126.095 56.636 130.105 48.6433 136.509 42.8253C142.913 37.0073 151.252 33.7804 159.904 33.7726C164.904 33.7653 169.843 34.8621 174.37 36.9848C179.163 24.6032 188.068 14.246 199.591 7.64951C211.113 1.05303 224.553 -1.3817 237.658 0.753511C250.762 2.88872 262.734 9.46406 271.566 19.3772C280.399 29.2903 285.555 41.9385 286.17 55.2014C294.972 56.2806 303.03 60.6796 308.697 67.4999C314.365 74.3201 317.214 83.0469 316.664 91.8974C316.113 100.748 312.205 109.055 305.736 115.12C299.267 121.185 290.726 124.552 281.859 124.533ZM120.517 122.377H281.859C290.237 122.358 298.288 119.118 304.343 113.328C310.399 107.537 313.996 99.6395 314.389 91.2702C314.782 82.901 311.942 74.7009 306.457 68.3679C300.971 62.0349 293.26 58.054 284.92 57.2495H283.972V56.3009C283.554 43.3807 278.656 31.008 270.117 21.3029C261.578 11.5978 249.929 5.16448 237.167 3.10545C224.405 1.04642 211.325 3.48984 200.167 10.017C189.009 16.5441 180.468 26.7487 176.008 38.8819L175.577 40.0029L174.499 39.464C169.981 37.1805 164.988 35.9985 159.926 36.0147C151.622 36.0202 143.632 39.1885 137.581 44.8752C131.53 50.5618 127.872 58.3398 127.351 66.6273V67.8345L126.166 67.619C122.49 67.0244 118.732 67.1798 115.119 68.0758C111.505 68.9718 108.11 70.5898 105.138 72.8324C102.166 75.075 99.6785 77.8959 97.8254 81.1251C95.9723 84.3544 94.7919 87.9252 94.3552 91.6227C93.9185 95.3202 94.2345 99.0677 95.2843 102.64C96.3341 106.212 98.0959 109.535 100.464 112.408C102.831 115.281 105.756 117.646 109.062 119.359C112.367 121.072 115.985 122.099 119.698 122.377H120.517Z" fill="#DBDBDB"/>
<path d="M281.859 124.533H118.383V124.36C110.845 123.497 103.922 119.788 99.0266 113.991C94.1312 108.195 91.6335 100.749 92.0435 93.1728C92.4536 85.597 95.7404 78.4635 101.233 73.2294C106.725 67.9952 114.008 65.0554 121.595 65.0104C122.821 65.0129 124.045 65.0921 125.26 65.2476C126.095 56.636 130.105 48.6433 136.509 42.8253C142.913 37.0073 151.252 33.7804 159.904 33.7726C164.904 33.7653 169.843 34.8621 174.37 36.9848C179.163 24.6032 188.068 14.246 199.591 7.64951C211.113 1.05303 224.553 -1.3817 237.658 0.753511C250.762 2.88872 262.734 9.46406 271.566 19.3772C280.399 29.2903 285.555 41.9385 286.17 55.2014C294.972 56.2806 303.03 60.6796 308.697 67.4999C314.365 74.3201 317.214 83.0469 316.664 91.8974C316.113 100.748 312.205 109.055 305.736 115.12C299.267 121.185 290.726 124.552 281.859 124.533ZM120.517 122.377H281.859C290.237 122.358 298.288 119.118 304.343 113.328C310.399 107.537 313.996 99.6395 314.389 91.2702C314.782 82.901 311.942 74.7009 306.457 68.3679C300.971 62.0349 293.26 58.054 284.92 57.2495H283.972V56.3009C283.554 43.3807 278.656 31.008 270.117 21.3029C261.578 11.5978 249.929 5.16448 237.167 3.10545C224.405 1.04642 211.325 3.48984 200.167 10.017C189.009 16.5441 180.468 26.7487 176.008 38.8819L175.577 40.0029L174.499 39.464C169.981 37.1805 164.988 35.9985 159.926 36.0147C151.622 36.0202 143.632 39.1885 137.581 44.8752C131.53 50.5618 127.872 58.3398 127.351 66.6273V67.8345L126.166 67.619C122.49 67.0244 118.732 67.1798 115.119 68.0758C111.505 68.9718 108.11 70.5898 105.138 72.8324C102.166 75.075 99.6785 77.8959 97.8254 81.1251C95.9723 84.3544 94.7919 87.9252 94.3552 91.6227C93.9185 95.3202 94.2345 99.0677 95.2843 102.64C96.3341 106.212 98.0959 109.535 100.464 112.408C102.831 115.281 105.756 117.646 109.062 119.359C112.367 121.072 115.985 122.099 119.698 122.377H120.517Z" fill="#EDC4B8"/>
<path d="M260.315 107.681C260.315 107.681 308.18 110.415 289.13 154.3C287.368 158.358 283.204 160.807 278.78 160.807L113 160.807C79.85 109.182 168.315 92.1804 168.315 92.1804C178.315 36.1795 271.315 57.6803 260.315 107.681Z" fill="#FBC7B7"/>
<path d="M216.617 84.6284C216.617 84.6284 200.793 211.304 174.794 239.847C143.578 274.039 120.898 269.059 108.308 286.672C95.6968 269.016 73.0392 274.039 41.8013 239.804C15.8022 211.304 0 84.5853 0 84.5853C68.5335 51.321 108.308 14.0469 108.308 14.0469C109.602 15.2541 149.226 51.9031 216.617 84.6284Z" fill="url(#paint0_linear_676_4553)"/>
<path opacity="0.1" d="M108.373 14.1078V286.625C95.7613 268.969 73.1036 273.992 41.8658 239.757C15.8666 211.257 0.0644531 84.5384 0.0644531 84.5384C68.5979 51.2741 108.373 14 108.373 14V14.1078Z" fill="black"/>
<path d="M16.8594 94.8212C16.8594 94.8212 30.2255 201.836 52.1717 225.938C78.5805 254.848 97.7242 250.601 108.374 265.497C119.024 250.601 138.167 254.848 164.576 225.938C186.522 201.836 199.867 94.8212 199.867 94.8212C141.983 66.7955 108.374 35.2344 108.374 35.2344C108.374 35.2344 74.7431 66.7093 16.8594 94.8212Z" fill="url(#paint1_linear_676_4553)"/>
<path opacity="0.1" d="M199.845 94.8447C199.845 94.8447 186.478 201.838 164.511 225.94C138.145 254.85 119.001 250.624 108.352 265.478V35.2578C109.365 36.2279 142.866 67.1639 199.845 94.8447Z" fill="black"/>
<path d="M135.018 123.578V152.401H126.891V123.578C126.891 112.626 118.591 103.744 108.351 103.744C98.1109 103.744 89.8325 112.626 89.8325 123.578V152.401H81.7051V123.578C81.7051 107.905 93.6483 95.1641 108.351 95.1641C123.054 95.1641 135.018 107.905 135.018 123.578Z" fill="#C7C7C7"/>
<path d="M81.7051 131.062L89.8325 131.386V152.34H81.7051V131.062Z" fill="#A6A6A6"/>
<path d="M135.018 133.214V152.336H126.891V132.891L135.018 133.214Z" fill="#A6A6A6"/>
<path d="M145.432 135.953H71.2715V203.236H145.432V135.953Z" fill="#EBEBEB"/>
<path d="M111.498 172.067L114.603 186.791H101.431L104.535 172.067C103.317 171.31 102.379 170.177 101.863 168.84C101.346 167.502 101.28 166.033 101.673 164.654C102.067 163.275 102.899 162.062 104.043 161.198C105.188 160.334 106.583 159.867 108.017 159.867C109.451 159.867 110.845 160.334 111.99 161.198C113.135 162.062 113.967 163.275 114.36 164.654C114.754 166.033 114.687 167.502 114.171 168.84C113.654 170.177 112.716 171.31 111.498 172.067Z" fill="#263238"/>
<defs>
<linearGradient id="paint0_linear_676_4553" x1="6.41828" y1="25.2506" x2="256.575" y2="228.645" gradientUnits="userSpaceOnUse">
<stop stop-color="#FF5F6D"/>
<stop offset="1" stop-color="#FFC371"/>
</linearGradient>
<linearGradient id="paint1_linear_676_4553" x1="22.2818" y1="44.6972" x2="233.58" y2="216.544" gradientUnits="userSpaceOnUse">
<stop stop-color="#FF5F6D"/>
<stop offset="1" stop-color="#FFC371"/>
</linearGradient>
</defs>
</svg>
