<svg width="1097" height="1177" viewBox="0 0 1097 1177" fill="none" xmlns="http://www.w3.org/2000/svg">
<g opacity="0.5">
<circle r="5.87285" transform="matrix(0.866041 -0.499972 0.866041 0.499972 1019.27 588.43)" stroke="#F65446" stroke-width="0.01"/>
<circle r="17.6169" transform="matrix(0.866041 -0.499972 0.866041 0.499972 1019.27 588.43)" stroke="#F65446" stroke-width="0.03"/>
<circle r="29.3615" transform="matrix(0.866041 -0.499972 0.866041 0.499972 1019.27 588.43)" stroke="#F65446" stroke-width="0.05"/>
<circle r="41.8407" transform="matrix(0.866041 -0.499972 0.866041 0.499972 1019.27 588.43)" stroke="#F65446" stroke-width="0.07"/>
<circle r="53.5853" transform="matrix(0.866041 -0.499972 0.866041 0.499972 1019.27 588.43)" stroke="#F65446" stroke-width="0.09"/>
<circle r="65.3299" transform="matrix(0.866041 -0.499972 0.866041 0.499972 1019.27 588.43)" stroke="#F65446" stroke-width="0.11"/>
<circle r="77.0744" transform="matrix(0.866041 -0.499972 0.866041 0.499972 1019.27 588.43)" stroke="#F65446" stroke-width="0.13"/>
<circle r="88.819" transform="matrix(0.866041 -0.499972 0.866041 0.499972 1019.27 588.43)" stroke="#F65446" stroke-width="0.15"/>
<circle r="101.298" transform="matrix(0.866041 -0.499972 0.866041 0.499972 1019.27 588.43)" stroke="#F65446" stroke-width="0.17"/>
<circle r="113.043" transform="matrix(0.866041 -0.499972 0.866041 0.499972 1019.27 588.43)" stroke="#F65446" stroke-width="0.19"/>
<circle r="124.787" transform="matrix(0.866041 -0.499972 0.866041 0.499972 1019.27 588.43)" stroke="#F65446" stroke-width="0.21"/>
<circle r="136.532" transform="matrix(0.866041 -0.499972 0.866041 0.499972 1019.27 588.43)" stroke="#F65446" stroke-width="0.23"/>
<circle r="148.277" transform="matrix(0.866041 -0.499972 0.866041 0.499972 1019.27 588.43)" stroke="#F65446" stroke-width="0.25"/>
<circle r="160.021" transform="matrix(0.866041 -0.499972 0.866041 0.499972 1019.27 588.43)" stroke="#F65446" stroke-width="0.27"/>
<circle r="172.5" transform="matrix(0.866041 -0.499972 0.866041 0.499972 1019.27 588.43)" stroke="#F65446" stroke-width="0.29"/>
<circle r="184.245" transform="matrix(0.866041 -0.499972 0.866041 0.499972 1019.27 588.43)" stroke="#F65446" stroke-width="0.31"/>
<circle r="195.99" transform="matrix(0.866041 -0.499972 0.866041 0.499972 1019.27 588.43)" stroke="#F65446" stroke-width="0.33"/>
<circle r="207.734" transform="matrix(0.866041 -0.499972 0.866041 0.499972 1019.27 588.43)" stroke="#F65446" stroke-width="0.35"/>
<circle r="219.479" transform="matrix(0.866041 -0.499972 0.866041 0.499972 1019.27 588.43)" stroke="#F65446" stroke-width="0.37"/>
<circle r="231.958" transform="matrix(0.866041 -0.499972 0.866041 0.499972 1019.27 588.43)" stroke="#F65446" stroke-width="0.39"/>
<circle r="243.703" transform="matrix(0.866041 -0.499972 0.866041 0.499972 1019.27 588.43)" stroke="#F65446" stroke-width="0.41"/>
<circle r="255.447" transform="matrix(0.866041 -0.499972 0.866041 0.499972 1019.27 588.43)" stroke="#F65446" stroke-width="0.43"/>
<circle r="267.192" transform="matrix(0.866041 -0.499972 0.866041 0.499972 1019.27 588.43)" stroke="#F65446" stroke-width="0.45"/>
<circle r="278.936" transform="matrix(0.866041 -0.499972 0.866041 0.499972 1019.27 588.43)" stroke="#F65446" stroke-width="0.47"/>
<circle r="290.681" transform="matrix(0.866041 -0.499972 0.866041 0.499972 1019.27 588.43)" stroke="#F65446" stroke-width="0.49"/>
<circle r="303.16" transform="matrix(0.866041 -0.499972 0.866041 0.499972 1019.27 588.43)" stroke="#F65446" stroke-width="0.51"/>
<circle r="314.905" transform="matrix(0.866041 -0.499972 0.866041 0.499972 1019.27 588.43)" stroke="#F65446" stroke-width="0.53"/>
<circle r="326.649" transform="matrix(0.866041 -0.499972 0.866041 0.499972 1019.27 588.43)" stroke="#F65446" stroke-width="0.55"/>
<circle r="338.394" transform="matrix(0.866041 -0.499972 0.866041 0.499972 1019.27 588.43)" stroke="#F65446" stroke-width="0.57"/>
<circle r="350.138" transform="matrix(0.866041 -0.499972 0.866041 0.499972 1019.27 588.43)" stroke="#F65446" stroke-width="0.59"/>
<circle r="362.618" transform="matrix(0.866041 -0.499972 0.866041 0.499972 1019.27 588.43)" stroke="#F65446" stroke-width="0.61"/>
<circle r="374.362" transform="matrix(0.866041 -0.499972 0.866041 0.499972 1019.27 588.43)" stroke="#F65446" stroke-width="0.63"/>
<circle r="386.107" transform="matrix(0.866041 -0.499972 0.866041 0.499972 1019.27 588.43)" stroke="#F65446" stroke-width="0.65"/>
<circle r="397.852" transform="matrix(0.866041 -0.499972 0.866041 0.499972 1019.27 588.43)" stroke="#F65446" stroke-width="0.67"/>
<circle r="409.596" transform="matrix(0.866041 -0.499972 0.866041 0.499972 1019.27 588.43)" stroke="#F65446" stroke-width="0.69"/>
<circle r="421.341" transform="matrix(0.866041 -0.499972 0.866041 0.499972 1019.27 588.43)" stroke="#F65446" stroke-width="0.71"/>
<circle r="433.82" transform="matrix(0.866041 -0.499972 0.866041 0.499972 1019.27 588.43)" stroke="#F65446" stroke-width="0.73"/>
<circle r="445.564" transform="matrix(0.866041 -0.499972 0.866041 0.499972 1019.27 588.43)" stroke="#F65446" stroke-width="0.75"/>
<circle r="457.309" transform="matrix(0.866041 -0.499972 0.866041 0.499972 1019.27 588.43)" stroke="#F65446" stroke-width="0.77"/>
<circle r="469.054" transform="matrix(0.866041 -0.499972 0.866041 0.499972 1019.27 588.43)" stroke="#F65446" stroke-width="0.79"/>
<circle r="480.798" transform="matrix(0.866041 -0.499972 0.866041 0.499972 1019.27 588.43)" stroke="#F65446" stroke-width="0.81"/>
<circle r="493.277" transform="matrix(0.866041 -0.499972 0.866041 0.499972 1019.27 588.43)" stroke="#F65446" stroke-width="0.83"/>
<circle r="505.022" transform="matrix(0.866041 -0.499972 0.866041 0.499972 1019.27 588.43)" stroke="#F65446" stroke-width="0.85"/>
<circle r="516.767" transform="matrix(0.866041 -0.499972 0.866041 0.499972 1019.27 588.43)" stroke="#F65446" stroke-width="0.87"/>
<circle r="528.511" transform="matrix(0.866041 -0.499972 0.866041 0.499972 1019.27 588.43)" stroke="#F65446" stroke-width="0.89"/>
<circle r="540.256" transform="matrix(0.866041 -0.499972 0.866041 0.499972 1019.27 588.43)" stroke="#F65446" stroke-width="0.91"/>
<circle r="552" transform="matrix(0.866041 -0.499972 0.866041 0.499972 1019.27 588.43)" stroke="#F65446" stroke-width="0.93"/>
<circle r="564.48" transform="matrix(0.866041 -0.499972 0.866041 0.499972 1019.27 588.43)" stroke="#F65446" stroke-width="0.95"/>
<circle r="576.224" transform="matrix(0.866041 -0.499972 0.866041 0.499972 1019.27 588.43)" stroke="#F65446" stroke-width="0.97"/>
<circle r="587.969" transform="matrix(0.866041 -0.499972 0.866041 0.499972 1019.27 588.43)" stroke="#F65446" stroke-width="0.99"/>
</g>
</svg>
