<svg width="1280" height="2188" viewBox="0 0 1280 2188" fill="none" xmlns="http://www.w3.org/2000/svg">
<path d="M-163.133 948.567C-70.7646 1065.8 -109.648 1250.65 -250.247 1361.43C-390.847 1472.22 -579.669 1466.78 -672.038 1349.55C-764.406 1232.32 -725.523 1047.46 -584.924 936.679C-444.324 825.897 -255.502 831.337 -163.133 948.567Z" stroke="#F65446" stroke-opacity="0.6"/>
<path d="M-142.336 867.192C-49.9677 984.421 -88.8507 1169.28 -229.45 1280.06C-370.05 1390.84 -558.872 1385.4 -651.241 1268.17C-743.609 1150.94 -704.726 966.086 -564.127 855.304C-423.527 744.522 -234.705 749.962 -142.336 867.192Z" stroke="#F65446" stroke-opacity="0.6"/>
<path d="M-118.667 789.472C-26.2997 906.7 -65.6685 1091.94 -206.872 1203.2C-348.076 1314.46 -537.387 1309.4 -629.754 1192.17C-722.122 1074.94 -682.753 889.703 -541.549 778.444C-400.345 667.186 -211.034 672.244 -118.667 789.472Z" stroke="#F65446" stroke-opacity="0.6"/>
<path d="M-94.6838 718.883C-2.31541 836.113 -41.1984 1020.97 -181.798 1131.75C-322.397 1242.53 -511.22 1237.09 -603.588 1119.86C-695.957 1002.63 -657.074 817.778 -516.474 706.996C-375.875 596.213 -187.052 601.653 -94.6838 718.883Z" stroke="#F65446" stroke-opacity="0.6"/>
<path d="M-62.3963 652.086C30.3687 769.819 -8.6815 955.468 -149.884 1066.72C-291.086 1177.98 -480.719 1172.52 -573.484 1054.79C-666.249 937.053 -627.199 751.404 -485.996 640.147C-344.794 528.89 -155.161 534.353 -62.3963 652.086Z" stroke="#F65446" stroke-opacity="0.6"/>
<path d="M-26.5518 594.302C66.2143 712.036 27.65 897.3 -112.948 1008.08C-253.546 1118.86 -442.69 1113.02 -535.456 995.282C-628.222 877.548 -589.658 692.284 -449.06 581.503C-308.463 470.722 -119.318 476.568 -26.5518 594.302Z" stroke="#F65446" stroke-opacity="0.6"/>
<path d="M16.8482 543.86C109.614 661.594 70.8065 847.05 -70.0935 958.069C-210.994 1069.09 -400.382 1063.43 -493.148 945.7C-585.913 827.967 -547.106 642.51 -406.206 531.491C-265.306 420.472 -75.9173 426.127 16.8482 543.86Z" stroke="#F65446" stroke-opacity="0.6"/>
<path d="M65.6162 502.482C158.382 620.216 119.818 805.48 -20.7799 916.261C-161.378 1027.04 -350.522 1021.2 -443.288 903.462C-536.055 785.728 -497.49 600.464 -356.892 489.683C-216.295 378.902 -27.1499 384.748 65.6162 502.482Z" stroke="#F65446" stroke-opacity="0.6"/>
<path d="M123.031 467.586C215.796 585.319 176.746 770.968 35.544 882.225C-105.658 993.482 -295.291 988.019 -388.056 870.286C-480.821 752.553 -441.771 566.904 -300.569 455.647C-159.366 344.39 30.2665 349.853 123.031 467.586Z" stroke="#F65446" stroke-opacity="0.6"/>
<path d="M185.442 443.517C278.208 561.251 239.644 746.515 99.0463 857.296C-41.5515 968.077 -230.696 962.231 -323.462 844.497C-416.228 726.763 -377.664 541.499 -237.066 430.718C-96.4684 319.937 92.6763 325.783 185.442 443.517Z" stroke="#F65446" stroke-opacity="0.6"/>
<path d="M254.329 425.427C346.895 542.908 307.685 728.353 166.482 839.611C25.2792 950.869 -164.193 945.608 -256.759 828.127C-349.325 710.647 -310.115 525.202 -168.912 413.944C-27.7092 302.686 161.763 307.947 254.329 425.427Z" stroke="#F65446" stroke-opacity="0.6"/>
<path d="M330.049 413.758C422.814 531.491 383.764 717.14 242.562 828.397C101.359 939.654 -88.2735 934.191 -181.038 816.458C-273.803 698.725 -234.753 513.076 -93.551 401.819C47.6513 290.562 237.284 296.025 330.049 413.758Z" stroke="#F65446" stroke-opacity="0.6"/>
<path d="M407.54 408.825C500.306 526.56 461.742 711.823 321.144 822.604C180.546 933.385 -8.59851 927.54 -101.365 809.806C-194.131 692.072 -155.566 506.808 -14.9686 396.027C125.629 285.246 314.774 291.091 407.54 408.825Z" stroke="#F65446" stroke-opacity="0.6"/>
<path d="M488.987 406.68C581.752 524.413 542.701 710.061 401.499 821.319C260.297 932.576 70.664 927.113 -22.1009 809.38C-114.866 691.647 -75.8157 505.998 65.3865 394.741C206.589 283.484 396.222 288.947 488.987 406.68Z" stroke="#F65446" stroke-opacity="0.6"/>
<path d="M572.218 409.036C664.984 526.771 626.419 712.034 485.822 822.815C345.224 933.596 156.079 927.751 63.3131 810.017C-29.4529 692.282 9.11138 507.019 149.709 396.238C290.307 285.457 479.452 291.302 572.218 409.036Z" stroke="#F65446" stroke-opacity="0.6"/>
<path d="M658.355 410.585C750.722 527.813 711.353 713.054 570.149 824.313C428.945 935.571 239.634 930.513 147.267 813.285C54.8997 696.057 94.2685 510.816 235.472 399.557C376.676 288.299 565.987 293.357 658.355 410.585Z" stroke="#F65446" stroke-opacity="0.6"/>
<path d="M740.867 412.031C833.234 529.26 794.109 714.308 653.207 825.329C512.305 936.349 323.238 931.1 230.871 813.871C138.503 696.642 177.629 511.594 318.53 400.573C459.432 289.553 648.499 294.802 740.867 412.031Z" stroke="#F65446" stroke-opacity="0.6"/>
<path d="M823.755 411.706C916.122 528.934 876.753 714.175 735.549 825.434C594.346 936.692 405.035 931.634 312.667 814.406C220.3 697.178 259.669 511.937 400.873 400.679C542.077 289.42 731.388 294.478 823.755 411.706Z" stroke="#F65446" stroke-opacity="0.6"/>
<path d="M901.961 407.684C994.329 524.913 955.446 709.769 814.847 820.551C674.247 931.334 485.425 925.894 393.056 808.664C300.688 691.434 339.571 506.579 480.17 395.796C620.77 285.014 809.592 290.454 901.961 407.684Z" stroke="#F65446" stroke-opacity="0.6"/>
<path d="M978.04 396.479C1070.41 513.708 1031.04 698.949 889.835 810.207C748.631 921.466 559.32 916.408 466.953 799.18C374.585 681.952 413.954 496.711 555.158 385.452C696.362 274.193 885.673 279.251 978.04 396.479Z" stroke="#F65446" stroke-opacity="0.6"/>
<path d="M1045.46 381.022C1138.03 498.504 1099.31 683.564 958.707 794.346C818.109 905.127 629.125 899.484 536.558 782.002C443.99 664.521 482.714 479.461 623.313 368.679C763.911 257.897 952.895 263.54 1045.46 381.022Z" stroke="#F65446" stroke-opacity="0.6"/>
<path d="M1110.42 355.689C1203.18 473.423 1164.62 658.687 1024.02 769.468C883.425 880.249 694.28 874.403 601.514 756.669C508.748 638.935 547.313 453.671 687.91 342.89C828.508 232.109 1017.65 237.955 1110.42 355.689Z" stroke="#F65446" stroke-opacity="0.6"/>
<path d="M1169.27 322.609C1262.03 440.342 1222.98 625.991 1081.78 737.248C940.576 848.506 750.943 843.042 658.178 725.31C565.413 607.577 604.464 421.928 745.666 310.671C886.868 199.413 1076.5 204.877 1169.27 322.609Z" stroke="#F65446" stroke-opacity="0.6"/>
<path d="M1217.66 283.008C1310.03 400.238 1271.15 585.093 1130.55 695.876C989.948 806.658 801.126 801.218 708.757 683.988C616.389 566.759 655.272 381.903 795.871 271.121C936.471 160.338 1125.29 165.778 1217.66 283.008Z" stroke="#F65446" stroke-opacity="0.6"/>
<path d="M1262.87 232.609C1355.63 350.342 1316.58 535.991 1175.38 647.248C1034.18 758.506 844.547 753.042 751.782 635.31C659.017 517.577 698.067 331.928 839.269 220.671C980.472 109.413 1170.1 114.877 1262.87 232.609Z" stroke="#F65446" stroke-opacity="0.6"/>
<path d="M1299.43 175.742C1391.8 292.972 1352.92 477.828 1212.32 588.61C1071.72 699.392 882.895 693.952 790.527 576.723C698.158 459.493 737.041 274.637 877.641 163.855C1018.24 53.0726 1207.06 58.5128 1299.43 175.742Z" stroke="#F65446" stroke-opacity="0.6"/>
<path d="M1331.34 110.719C1424.11 228.453 1385.3 413.909 1244.4 524.928C1103.5 635.947 914.114 630.293 821.348 512.56C728.583 394.826 767.39 209.37 908.29 98.3507C1049.19 -12.6684 1238.58 -7.01405 1331.34 110.719Z" stroke="#F65446" stroke-opacity="0.6"/>
<path d="M1356.42 39.2669C1449.19 157.001 1410.62 342.265 1270.02 453.046C1129.43 563.827 940.282 557.981 847.516 440.247C754.75 322.513 793.315 137.249 933.912 26.4682C1074.51 -84.3128 1263.65 -78.4673 1356.42 39.2669Z" stroke="#F65446" stroke-opacity="0.6"/>
<path d="M1380.81 -37.5401C1473.17 79.688 1433.81 264.929 1292.6 376.188C1151.4 487.446 962.087 482.388 869.72 365.16C777.353 247.932 816.722 62.691 957.926 -48.5676C1099.13 -159.826 1288.44 -154.768 1380.81 -37.5401Z" stroke="#F65446" stroke-opacity="0.6"/>
<path d="M1399.42 -117.199C1491.79 0.0304741 1452.91 184.886 1312.31 295.669C1171.71 406.451 982.885 401.011 890.517 283.781C798.149 166.552 837.032 -18.3042 977.631 -129.087C1118.23 -239.869 1307.05 -234.429 1399.42 -117.199Z" stroke="#F65446" stroke-opacity="0.6"/>
<path d="M1417.69 -199.528C1510.06 -82.3003 1470.69 102.941 1329.48 214.199C1188.28 325.458 998.97 320.4 906.603 203.172C814.236 85.9437 853.604 -99.2973 994.808 -210.556C1136.01 -321.814 1325.32 -316.756 1417.69 -199.528Z" stroke="#F65446" stroke-opacity="0.6"/>
<path d="M1437.05 -282.727C1529.81 -164.994 1490.76 20.6552 1349.56 131.912C1208.36 243.17 1018.73 237.706 925.962 119.974C833.197 2.2409 872.247 -183.408 1013.45 -294.665C1154.65 -405.922 1344.28 -400.459 1437.05 -282.727Z" stroke="#F65446" stroke-opacity="0.6"/>
<path d="M1454.23 -364.198C1547 -246.464 1508.43 -61.2 1367.83 49.581C1227.24 160.362 1038.09 154.516 945.325 36.7823C852.559 -80.9519 891.123 -266.216 1031.72 -376.997C1172.32 -487.778 1361.46 -481.932 1454.23 -364.198Z" stroke="#F65446" stroke-opacity="0.6"/>
<path d="M1475.37 -442.887C1568.14 -325.154 1529.09 -139.505 1387.88 -28.2477C1246.68 83.0095 1057.05 77.5463 964.284 -40.1865C871.519 -157.919 910.569 -343.568 1051.77 -454.825C1192.97 -566.083 1382.61 -560.619 1475.37 -442.887Z" stroke="#F65446" stroke-opacity="0.6"/>
<path d="M1499.01 -516.159C1591.78 -398.425 1553.21 -213.161 1412.61 -102.38C1272.02 8.40099 1082.87 2.55553 990.106 -115.179C897.34 -232.913 935.904 -418.177 1076.5 -528.958C1217.1 -639.739 1406.24 -633.893 1499.01 -516.159Z" stroke="#F65446" stroke-opacity="0.6"/>
<path d="M1529.14 -585.687C1621.91 -467.955 1582.86 -282.306 1441.66 -171.049C1300.45 -59.7913 1110.82 -65.2545 1018.06 -182.987C925.29 -300.72 964.341 -486.369 1105.54 -597.626C1246.75 -708.883 1436.38 -703.42 1529.14 -585.687Z" stroke="#F65446" stroke-opacity="0.6"/>
</svg>
